<svg width="64" height="64" viewBox="0 0 64 64" fill="none" xmlns="http://www.w3.org/2000/svg">
<rect width="64" height="64" rx="4" fill="#212529"/>
<path d="M26.5625 32C26.5625 33.3924 27.1156 34.7277 28.1002 35.7123C29.0848 36.6969 30.4201 37.25 31.8125 37.25C33.2049 37.25 34.5403 36.6969 35.5248 35.7123C36.5094 34.7277 37.0625 33.3924 37.0625 32C37.0625 30.6076 36.5094 29.2723 35.5248 28.2877C34.5403 27.3031 33.2049 26.75 31.8125 26.75C30.4201 26.75 29.0848 27.3031 28.1002 28.2877C27.1156 29.2723 26.5625 30.6076 26.5625 32V32ZM52.1657 30.7906C47.7219 21.4297 41.0047 16.7188 32 16.7188C22.9906 16.7188 16.2781 21.4297 11.8344 30.7953C11.6561 31.1727 11.5637 31.5849 11.5637 32.0023C11.5637 32.4197 11.6561 32.832 11.8344 33.2094C16.2781 42.5703 22.9953 47.2812 32 47.2812C41.0094 47.2812 47.7219 42.5703 52.1657 33.2047C52.5266 32.4453 52.5266 31.5641 52.1657 30.7906V30.7906ZM31.8125 40.25C27.2563 40.25 23.5625 36.5562 23.5625 32C23.5625 27.4438 27.2563 23.75 31.8125 23.75C36.3688 23.75 40.0625 27.4438 40.0625 32C40.0625 36.5562 36.3688 40.25 31.8125 40.25Z" fill="#FFA94D"/>
</svg>
