<svg width="77" height="16" viewBox="0 0 77 16" fill="none" xmlns="http://www.w3.org/2000/svg">
<path d="M68.4141 9C68.4141 9.40611 68.5754 9.79559 68.8626 10.0828C69.1497 10.3699 69.5392 10.5312 69.9453 10.5312C70.3514 10.5312 70.7409 10.3699 71.0281 10.0828C71.3153 9.79559 71.4766 9.40611 71.4766 9C71.4766 8.59389 71.3153 8.20441 71.0281 7.91724C70.7409 7.63008 70.3514 7.46875 69.9453 7.46875C69.5392 7.46875 69.1497 7.63008 68.8626 7.91724C68.5754 8.20441 68.4141 8.59389 68.4141 9V9ZM75.8817 8.64727C74.5856 5.91699 72.6264 4.54297 70 4.54297C67.3723 4.54297 65.4145 5.91699 64.1184 8.64863C64.0664 8.75871 64.0394 8.87894 64.0394 9.00068C64.0394 9.12242 64.0664 9.24265 64.1184 9.35273C65.4145 12.083 67.3736 13.457 70 13.457C72.6278 13.457 74.5856 12.083 75.8817 9.35137C75.9869 9.12988 75.9869 8.87285 75.8817 8.64727V8.64727ZM69.9453 11.4062C68.6164 11.4062 67.5391 10.3289 67.5391 9C67.5391 7.67109 68.6164 6.59375 69.9453 6.59375C71.2742 6.59375 72.3516 7.67109 72.3516 9C72.3516 10.3289 71.2742 11.4062 69.9453 11.4062Z" fill="#FFA94D"/>
<path d="M1.8252 3.04688H3.56152L6.11816 10.3545L8.6748 3.04688H10.4111L6.81543 13H5.4209L1.8252 3.04688ZM0.888672 3.04688H2.61816L2.93262 10.1699V13H0.888672V3.04688ZM9.61816 3.04688H11.3545V13H9.30371V10.1699L9.61816 3.04688ZM15.2031 3.04688V13H13.1523V3.04688H15.2031ZM21.1641 3.04688L17.2197 7.96191L14.9434 10.4092L14.5742 8.46777L16.1123 6.3623L18.6484 3.04688H21.1641ZM18.833 13L15.9004 8.39941L17.418 7.12793L21.2598 13H18.833ZM25.1084 13H22.9414L22.9551 11.4004H25.1084C25.6462 11.4004 26.0996 11.2796 26.4688 11.0381C26.8379 10.792 27.1159 10.4342 27.3027 9.96484C27.4941 9.49544 27.5898 8.92806 27.5898 8.2627V7.77734C27.5898 7.26693 27.5352 6.81803 27.4258 6.43066C27.321 6.04329 27.1637 5.71745 26.9541 5.45312C26.7445 5.1888 26.487 4.99056 26.1816 4.8584C25.8763 4.72168 25.5254 4.65332 25.1289 4.65332H22.9004V3.04688H25.1289C25.7943 3.04688 26.4027 3.16081 26.9541 3.38867C27.5101 3.61198 27.9909 3.93327 28.3965 4.35254C28.8021 4.77181 29.1143 5.27311 29.333 5.85645C29.5563 6.43522 29.668 7.08008 29.668 7.79102V8.2627C29.668 8.96908 29.5563 9.61393 29.333 10.1973C29.1143 10.7806 28.8021 11.2819 28.3965 11.7012C27.9954 12.1159 27.5146 12.4372 26.9541 12.665C26.3981 12.8883 25.7829 13 25.1084 13ZM24.1035 3.04688V13H22.0527V3.04688H24.1035Z" fill="#FFA94D"/>
<path d="M33.5508 11.5645L35.1914 5.60352H37.249L34.7539 13H33.5098L33.5508 11.5645ZM32.4229 5.60352L34.0703 11.5713L34.1045 13H32.8535L30.3584 5.60352H32.4229ZM40.209 5.60352V13H38.2334V5.60352H40.209ZM38.1104 3.67578C38.1104 3.38867 38.2106 3.15169 38.4111 2.96484C38.6117 2.77799 38.8805 2.68457 39.2178 2.68457C39.5505 2.68457 39.8171 2.77799 40.0176 2.96484C40.2227 3.15169 40.3252 3.38867 40.3252 3.67578C40.3252 3.96289 40.2227 4.19987 40.0176 4.38672C39.8171 4.57357 39.5505 4.66699 39.2178 4.66699C38.8805 4.66699 38.6117 4.57357 38.4111 4.38672C38.2106 4.19987 38.1104 3.96289 38.1104 3.67578ZM45.2402 13.1367C44.666 13.1367 44.151 13.0456 43.6953 12.8633C43.2396 12.6764 42.8522 12.4189 42.5332 12.0908C42.2188 11.7627 41.9772 11.3822 41.8086 10.9492C41.64 10.5117 41.5557 10.0469 41.5557 9.55469V9.28125C41.5557 8.7207 41.6354 8.20801 41.7949 7.74316C41.9544 7.27832 42.1823 6.875 42.4785 6.5332C42.7793 6.19141 43.1439 5.92936 43.5723 5.74707C44.0007 5.56022 44.4837 5.4668 45.0215 5.4668C45.5456 5.4668 46.0104 5.55339 46.416 5.72656C46.8216 5.89974 47.1611 6.14583 47.4346 6.46484C47.7126 6.78385 47.9222 7.16667 48.0635 7.61328C48.2048 8.05534 48.2754 8.54753 48.2754 9.08984V9.91016H42.3965V8.59766H46.3408V8.44727C46.3408 8.17383 46.2907 7.93001 46.1904 7.71582C46.0947 7.49707 45.9489 7.32389 45.7529 7.19629C45.557 7.06868 45.3063 7.00488 45.001 7.00488C44.7412 7.00488 44.5179 7.06185 44.3311 7.17578C44.1442 7.28971 43.9915 7.44922 43.873 7.6543C43.7591 7.85938 43.6725 8.10091 43.6133 8.37891C43.5586 8.65234 43.5312 8.95312 43.5312 9.28125V9.55469C43.5312 9.85091 43.5723 10.1243 43.6543 10.375C43.7409 10.6257 43.8617 10.8421 44.0166 11.0244C44.1761 11.2067 44.3675 11.348 44.5908 11.4482C44.8187 11.5485 45.0762 11.5986 45.3633 11.5986C45.7188 11.5986 46.0492 11.5303 46.3545 11.3936C46.6644 11.2523 46.931 11.0404 47.1543 10.7578L48.1113 11.7969C47.9564 12.0202 47.7445 12.2344 47.4756 12.4395C47.2113 12.6445 46.8923 12.8132 46.5186 12.9453C46.1449 13.0729 45.7188 13.1367 45.2402 13.1367ZM51.5088 11.0859L53.0469 5.60352H54.2979L53.8945 7.75684L52.3564 13H51.3105L51.5088 11.0859ZM50.7295 5.60352L51.8301 11.0791L51.9326 13H50.7021L48.8291 5.60352H50.7295ZM55.7061 10.9902L56.7793 5.60352H58.6865L56.8135 13H55.5898L55.7061 10.9902ZM54.4688 5.60352L56 11.0449L56.2119 13H55.1592L53.6211 7.76367L53.2314 5.60352H54.4688Z" fill="white"/>
</svg>
